# xmcd
#
# Track frame offsets: 
#        150
#        20445
#        37630
#        53332
#        72370
#        87175
#        101435
#        119570
#        127915
#        140657
#        165827
#
# Disc length: 2343 seconds
#
# Revision: 0
# Processed by: cddbd v1.5.2PL0 Copyright (c) Steve Scherf et al.
# Submitted via: ExactAudioCopy v0.95b3
#
DISCID=7f09250b
DTITLE=Jimmy "Duck" Holmes - Back To Bentonia
DYEAR=2006
DGENRE=Blues
TTITLE0=I'd Rather Be The Devil
TTITLE1=Cool Water
TTITLE2=Hurry, Hurry, Hurry
TTITLE3=Count The Days I'm Gone
TTITLE4=Vicksburg Blues
TTITLE5=Six Little Puppies
TTITLE6=Mr. Taxi Driver
TTITLE7=Duck's Shuffle
TTITLE8=Hard Times
TTITLE9=Back To Bentonia
TTITLE10=Your Buggy Don't Ride Like Mine
EXTD=
EXTT0=
EXTT1=
EXTT2=
EXTT3=
EXTT4=
EXTT5=
EXTT6=
EXTT7=
EXTT8=
EXTT9=
EXTT10=
PLAYORDER=
